# xmcd
#
# Track frame offsets: 
#        150
#        10200
#        27272
#        39462
#        53865
#        67915
#        85057
#        101867
#        114420
#        132880
#        146587
#
# Disc length: 2209 seconds
#
# Revision: 4
# Processed by: cddbd v1.5.2PL0 Copyright (c) Steve Scherf et al.
# Submitted via: ExactAudioCopy v0.99pb5
#
DISCID=8d089f0b
DTITLE=Tony Joe White - Homemade Ice Cream
DYEAR=1973
DGENRE=Blues
TTITLE0=Saturday Night In Oak Grove Louisiana
TTITLE1=For Ol' Times Sake
TTITLE2=I Want Love ('Tween You and Me)
TTITLE3=Homemade Ice Cream
TTITLE4=Ol' Mother Earth
TTITLE5=Lazy
TTITLE6=California On My Mind
TTITLE7=Backwoods Preacher Man
TTITLE8=Takin' The Midnite Train
TTITLE9=No News Is Good News
TTITLE10=Did Somebody Make A Fool Out Of You
EXTD=(c)1973 Warner Bros - WEA\nupc 075992692328\nAll selections writt
EXTD=en by Tony Joe White\nPublished by Tennessee Swamp Fox Music Inc.
EXTD=\n(8)published by Valando Music\nProduced by Tom Dowd and Tony Joe 
EXTD=White\n
EXTT0=
EXTT1=
EXTT2=
EXTT3=
EXTT4=
EXTT5=
EXTT6=
EXTT7=
EXTT8=
EXTT9=
EXTT10=
PLAYORDER=
